<?xml version="1.0" encoding="utf-8"?>
<!-- Generator: Adobe Illustrator 24.2.1, SVG Export Plug-In . SVG Version: 6.00 Build 0)  -->
<svg version="1.1" id="Layer_1" xmlns="http://www.w3.org/2000/svg" xmlns:xlink="http://www.w3.org/1999/xlink" x="0px" y="0px"
	 viewBox="0 0 71.7 71.7" style="enable-background:new 0 0 71.7 71.7;" xml:space="preserve">
<style type="text/css">
	.st0{fill:#5D7494;}
	.st1{fill:#FFFFFF;}
</style>
<path id="XMLID_1421_" class="st0" d="M35.9,71.7L35.9,71.7C16.1,71.7,0,55.7,0,35.9l0,0C0,16.1,16.1,0,35.9,0l0,0
	c19.8,0,35.9,16.1,35.9,35.9l0,0C71.7,55.7,55.7,71.7,35.9,71.7z"/>
<path id="XMLID_1420_" class="st1" d="M30.4,57.5h8.7V35.7h6.1l0.6-7.3h-6.7c0,0,0-2.7,0-4.2c0-1.7,0.3-2.4,2-2.4c1.3,0,4.7,0,4.7,0
	v-7.6c0,0-5,0-6,0c-6.5,0-9.4,2.9-9.4,8.3c0,4.8,0,5.8,0,5.8h-4.5v7.4h4.5C30.4,35.7,30.4,57.5,30.4,57.5z"/>
</svg>
