<?xml version="1.0" encoding="utf-8"?>
<!-- Generator: Adobe Illustrator 24.2.1, SVG Export Plug-In . SVG Version: 6.00 Build 0)  -->
<svg version="1.1" id="Layer_1" xmlns="http://www.w3.org/2000/svg" xmlns:xlink="http://www.w3.org/1999/xlink" x="0px" y="0px"
	 viewBox="0 0 71.7 71.7" style="enable-background:new 0 0 71.7 71.7;" xml:space="preserve">
<style type="text/css">
	.st0{fill:#5D7494;}
	.st1{fill:#FFFFFF;}
</style>
<path id="XMLID_1418_" class="st0" d="M35.9,71.7L35.9,71.7C16.1,71.7,0,55.7,0,35.9l0,0C0,16.1,16.1,0,35.9,0l0,0
	c19.8,0,35.9,16.1,35.9,35.9l0,0C71.7,55.7,55.7,71.7,35.9,71.7z"/>
<g id="XMLID_1347_">
	<path id="XMLID_1352_" class="st1" d="M35.9,19.7c5.3,0,5.9,0,7.9,0.1c1.9,0.1,3,0.4,3.7,0.7c0.9,0.4,1.6,0.8,2.3,1.5
		s1.1,1.3,1.5,2.3C51.6,25,51.9,26,52,28c0,2,0,2.6,0,7.9s0,5.9-0.1,7.9c-0.1,1.9-0.4,3-0.7,3.7c-0.4,0.9-0.8,1.6-1.5,2.3
		s-1.3,1.1-2.3,1.5c-0.7,0.3-1.7,0.6-3.7,0.7c-2,0-2.6,0-7.8,0c-5.3,0-5.9,0-7.9-0.1c-1.9-0.1-3-0.4-3.7-0.7
		c-0.9-0.4-1.6-0.8-2.3-1.5c-0.7-0.7-1.1-1.3-1.5-2.3c-0.3-0.7-0.6-1.7-0.7-3.7c-0.1-2.1-0.1-2.7-0.1-7.9c0-5.3,0-5.9,0.1-7.9
		c0.1-1.9,0.4-3,0.7-3.7c0.4-0.9,0.8-1.6,1.5-2.3c0.7-0.7,1.3-1.1,2.3-1.5c0.7-0.3,1.7-0.6,3.7-0.7C30,19.8,30.6,19.7,35.9,19.7
		 M35.9,16.2c-5.3,0-6,0-8.1,0.1s-3.5,0.4-4.8,0.9c-1.3,0.5-2.4,1.2-3.5,2.3c-1.1,1.1-1.8,2.2-2.3,3.5s-0.8,2.7-0.9,4.8
		s-0.1,2.8-0.1,8.1s0,6,0.1,8.1s0.4,3.5,0.9,4.8s1.2,2.4,2.3,3.5c1.1,1.1,2.2,1.8,3.5,2.3s2.7,0.8,4.8,0.9c2.1,0.1,2.8,0.1,8.1,0.1
		s6,0,8.1-0.1s3.5-0.4,4.8-0.9s2.4-1.2,3.5-2.3s1.8-2.2,2.3-3.5s0.8-2.7,0.9-4.8c0.1-2.1,0.1-2.8,0.1-8.1s0-6-0.1-8.1
		s-0.4-3.5-0.9-4.8c-0.5-1.3-1.2-2.4-2.3-3.5s-2.2-1.8-3.5-2.3s-2.7-0.8-4.8-0.9S41.2,16.2,35.9,16.2"/>
	<path id="XMLID_1349_" class="st1" d="M35.9,25.8c-5.6,0-10.1,4.5-10.1,10.1S30.3,46,35.9,46C41.4,46,46,41.4,46,35.9
		C46,30.3,41.4,25.8,35.9,25.8 M35.9,42.4c-3.6,0-6.6-2.9-6.6-6.6c0-3.6,2.9-6.6,6.6-6.6c3.6,0,6.6,2.9,6.6,6.6
		C42.4,39.5,39.5,42.4,35.9,42.4"/>
	<path id="XMLID_1348_" class="st1" d="M48.7,25.4c0,1.3-1.1,2.4-2.4,2.4c-1.3,0-2.4-1.1-2.4-2.4S45,23,46.3,23
		C47.7,23,48.7,24.1,48.7,25.4"/>
</g>
</svg>
