<?xml version="1.0" encoding="utf-8"?>
<!-- Generator: Adobe Illustrator 24.2.1, SVG Export Plug-In . SVG Version: 6.00 Build 0)  -->
<svg version="1.1" id="Layer_1" xmlns="http://www.w3.org/2000/svg" xmlns:xlink="http://www.w3.org/1999/xlink" x="0px" y="0px"
	 viewBox="0 0 71.7 71.7" style="enable-background:new 0 0 71.7 71.7;" xml:space="preserve">
<style type="text/css">
	.st0{fill:#5D7494;}
	.st1{fill:#FFFFFF;}
</style>
<path id="XMLID_1343_" class="st0" d="M35.9,71.7L35.9,71.7C16.1,71.7,0,55.7,0,35.9l0,0C0,16.1,16.1,0,35.9,0l0,0
	c19.8,0,35.9,16.1,35.9,35.9l0,0C71.7,55.7,55.7,71.7,35.9,71.7z"/>
<path id="XMLID_1342_" class="st1" d="M24.4,39.2c0.6,0.2,1.1,0,1.2-0.6c0.1-0.4,0.4-1.5,0.5-2c0.2-0.6,0.1-0.8-0.4-1.4
	c-1-1.2-1.6-2.7-1.6-4.8c0-6.2,4.6-11.7,12-11.7c6.6,0,10.2,4,10.2,9.4c0,7.1-3.1,13-7.8,13c-2.6,0-4.5-2.1-3.9-4.7
	c0.7-3.1,2.2-6.4,2.2-8.7c0-2-1.1-3.7-3.3-3.7c-2.6,0-4.7,2.7-4.7,6.3c0,2.3,0.8,3.9,0.8,3.9S27,45.6,26.5,47.6
	c-0.9,4-0.1,8.8-0.1,9.3c0,0.3,0.4,0.4,0.6,0.1c0.2-0.3,3.4-4.2,4.4-8c0.3-1.1,1.7-6.7,1.7-6.7c0.8,1.6,3.3,3,6,3
	c7.9,0,13.2-7.2,13.2-16.8c0-7.3-6.1-14-15.5-14c-11.6,0-17.5,8.3-17.5,15.3C19.4,34.1,21,37.8,24.4,39.2z"/>
</svg>
