<?xml version="1.0" encoding="utf-8"?>
<!-- Generator: Adobe Illustrator 24.2.1, SVG Export Plug-In . SVG Version: 6.00 Build 0)  -->
<svg version="1.1" id="Layer_1" xmlns="http://www.w3.org/2000/svg" xmlns:xlink="http://www.w3.org/1999/xlink" x="0px" y="0px"
	 viewBox="0 0 71.7 71.7" style="enable-background:new 0 0 71.7 71.7;" xml:space="preserve">
<style type="text/css">
	.st0{fill:#5D7494;}
	.st1{fill:#FFFFFF;}
</style>
<path id="XMLID_1451_" class="st0" d="M35.9,71.7L35.9,71.7C16.1,71.7,0,55.7,0,35.9l0,0C0,16.1,16.1,0,35.9,0l0,0
	c19.8,0,35.9,16.1,35.9,35.9l0,0C71.7,55.7,55.7,71.7,35.9,71.7z"/>
<path id="XMLID_1450_" class="st1" d="M16.8,47.9c3.5,2.2,7.6,3.5,12,3.5c14.6,0,22.8-12.3,22.3-23.3C52.6,27,54,25.6,55,24
	c-1.4,0.6-2.9,1-4.5,1.2c1.6-1,2.9-2.5,3.4-4.3c-1.5,0.9-3.2,1.6-5,1.9c-1.4-1.5-3.5-2.5-5.7-2.5c-5.1,0-8.8,4.7-7.6,9.6
	c-6.5-0.3-12.3-3.4-16.2-8.2c-2.1,3.5-1.1,8.1,2.4,10.5c-1.3,0-2.5-0.4-3.6-1c-0.1,3.6,2.5,7,6.3,7.8c-1.1,0.3-2.3,0.4-3.5,0.1
	c1,3.1,3.9,5.4,7.3,5.4C25.1,47.2,20.9,48.4,16.8,47.9z"/>
</svg>
