<?xml version="1.0" encoding="utf-8"?>
<!-- Generator: Adobe Illustrator 24.2.1, SVG Export Plug-In . SVG Version: 6.00 Build 0)  -->
<svg version="1.1" id="Layer_1" xmlns="http://www.w3.org/2000/svg" xmlns:xlink="http://www.w3.org/1999/xlink" x="0px" y="0px"
	 viewBox="0 0 71.7 71.7" style="enable-background:new 0 0 71.7 71.7;" xml:space="preserve">
<style type="text/css">
	.st0{fill:#5D7494;}
	.st1{fill:#FFFFFF;}
</style>
<path id="XMLID_1124_" class="st0" d="M35.9,71.7L35.9,71.7C16.1,71.7,0,55.7,0,35.9l0,0C0,16.1,16.1,0,35.9,0l0,0
	c19.8,0,35.9,16.1,35.9,35.9l0,0C71.7,55.7,55.7,71.7,35.9,71.7z"/>
<path id="XMLID_1123_" class="st1" d="M50.3,18.3c-5.6-0.2-9.5,3-11.5,9.6c1-0.4,2-0.7,3-0.7c2.1,0,3,1.2,2.7,3.5
	c-0.1,1.4-1,3.5-2.7,6.1c-1.7,2.7-3,4-3.8,4c-1.1,0-2.1-2.1-3-6.2c-0.3-1.2-0.9-4.3-1.6-9.3c-0.7-4.6-2.7-6.8-5.8-6.5
	c-1.3,0.1-3.4,1.3-6,3.7c-1.9,1.8-3.9,3.5-5.9,5.3l1.9,2.5c1.8-1.3,2.9-1.9,3.2-1.9c1.4,0,2.7,2.2,3.9,6.6c1.1,4,2.2,8,3.3,12
	c1.6,4.4,3.6,6.6,6,6.6c3.8,0,8.5-3.6,14-10.8c5.3-6.9,8.1-12.3,8.3-16.3C56.4,21.1,54.5,18.4,50.3,18.3z"/>
</svg>
