<?xml version="1.0" encoding="utf-8"?>
<!-- Generator: Adobe Illustrator 24.3.0, SVG Export Plug-In . SVG Version: 6.00 Build 0)  -->
<svg version="1.1" id="Layer_1" xmlns="http://www.w3.org/2000/svg" xmlns:xlink="http://www.w3.org/1999/xlink" x="0px" y="0px"
	 viewBox="0 0 283.5 283.5" style="enable-background:new 0 0 283.5 283.5;" xml:space="preserve">
<style type="text/css">
	.st0{fill:#7A3294;}
	.st1{fill:#FFFFFF;}
</style>
<circle class="st0" cx="141.7" cy="141.7" r="141.7"/>
<g>
	<path class="st1" d="M141.7,72.2c22.8,0,25.4,0,34.4,0.4c8.2,0.4,12.8,1.8,15.8,3c4,1.6,6.8,3.4,9.8,6.4c3,3,4.8,5.8,6.4,9.8
		c1.2,3,2.6,7.6,3,15.8c0.4,9,0.4,11.6,0.4,34.4s0,25.4-0.4,34.4c-0.4,8.2-1.8,12.8-3,15.8c-1.6,4-3.4,6.8-6.4,9.8s-5.8,4.8-9.8,6.4
		c-3,1.2-7.6,2.6-15.8,3c-9,0.4-11.6,0.4-34.4,0.4s-25.4,0-34.4-0.4c-8.2-0.4-12.8-1.8-15.8-3c-4-1.6-6.8-3.4-9.8-6.4
		s-4.8-5.8-6.4-9.8c-1.2-3-2.6-7.6-3-15.8c-0.4-9-0.4-11.6-0.4-34.4s0-25.4,0.4-34.4c0.4-8.2,1.8-12.8,3-15.8c1.6-4,3.4-6.8,6.4-9.8
		c3-3,5.8-4.8,9.8-6.4c3-1.2,7.6-2.6,15.8-3C116.3,72.2,118.9,72.2,141.7,72.2 M141.7,56.8c-23.2,0-26,0-35,0.6
		c-9,0.4-15.2,1.8-20.6,4c-5.6,2.2-10.4,5-15,9.8c-4.8,4.8-7.6,9.4-9.8,15c-2.2,5.4-3.6,11.6-4,20.6s-0.6,11.8-0.6,35s0,26,0.6,35
		c0.4,9,1.8,15.2,4,20.6c2.2,5.6,5,10.4,9.8,15c4.8,4.8,9.4,7.6,15,9.8c5.4,2.2,11.6,3.6,20.6,4c9,0.4,12,0.6,35,0.6s26,0,35-0.6
		c9-0.4,15.2-1.8,20.6-4c5.6-2.2,10.4-5,15-9.8c4.8-4.8,7.6-9.4,9.8-15c2.2-5.4,3.6-11.6,4-20.6c0.4-9,0.6-12,0.6-35s0-26-0.6-35
		c-0.4-9-1.8-15.2-4-20.6c-2.2-5.6-5-10.4-9.8-15s-9.6-7.6-15.2-9.8c-5.4-2.2-11.6-3.6-20.6-4C167.5,56.8,164.7,56.8,141.7,56.8z
		 M141.7,98.2c-24,0-43.6,19.6-43.6,43.6s19.6,43.6,43.6,43.6s43.6-19.6,43.6-43.6S165.7,98.2,141.7,98.2z M141.7,170.1
		c-15.6,0-28.4-12.6-28.4-28.4s12.6-28.4,28.4-28.4s28.4,12.6,28.4,28.4S157.3,170.1,141.7,170.1z M197.1,96.4
		c0,5.6-4.6,10.2-10.2,10.2s-10.2-4.6-10.2-10.2c0-5.6,4.6-10.2,10.2-10.2C192.7,86.2,197.1,90.8,197.1,96.4z"/>
</g>
</svg>
