<?xml version="1.0" encoding="utf-8"?>
<!-- Generator: Adobe Illustrator 24.3.0, SVG Export Plug-In . SVG Version: 6.00 Build 0)  -->
<svg version="1.1" id="Layer_1" xmlns="http://www.w3.org/2000/svg" xmlns:xlink="http://www.w3.org/1999/xlink" x="0px" y="0px"
	 viewBox="0 0 560 111.2" style="enable-background:new 0 0 560 111.2;" xml:space="preserve">
<style type="text/css">
	.st0{fill:#DC3F5F;}
	.st1{fill:#5F5BAC;}
	.st2{fill:#5FC29B;}
	.st3{fill:#71D722;}
	.st4{fill:#FAE931;}
	.st5{fill:#7A3294;}
	.st6{fill:#E94B33;}
	.st7{fill:none;}
	.st8{clip-path:url(#SVGID_2_);}
	.st9{fill:#7B3293;}
	.st10{fill:#7C3292;}
	.st11{fill:#7D3391;}
	.st12{fill:#7E3391;}
	.st13{fill:#7F3390;}
	.st14{fill:#80338F;}
	.st15{fill:#81348E;}
	.st16{fill:#82348D;}
	.st17{fill:#83348C;}
	.st18{fill:#84348B;}
	.st19{fill:#85348A;}
	.st20{fill:#86358A;}
	.st21{fill:#873589;}
	.st22{fill:#883588;}
	.st23{fill:#893587;}
	.st24{fill:#8A3686;}
	.st25{fill:#8B3685;}
	.st26{fill:#8C3684;}
	.st27{fill:#8D3684;}
	.st28{fill:#8E3683;}
	.st29{fill:#8F3782;}
	.st30{fill:#903781;}
	.st31{fill:#913780;}
	.st32{fill:#92377F;}
	.st33{fill:#93387E;}
	.st34{fill:#94387D;}
	.st35{fill:#95387D;}
	.st36{fill:#96387C;}
	.st37{fill:#97387B;}
	.st38{fill:#98397A;}
	.st39{fill:#993979;}
	.st40{fill:#9A3978;}
	.st41{fill:#9B3977;}
	.st42{fill:#9C3A77;}
	.st43{fill:#9D3A76;}
	.st44{fill:#9E3A75;}
	.st45{fill:#9F3A74;}
	.st46{fill:#A03A73;}
	.st47{fill:#A13B72;}
	.st48{fill:#A23B71;}
	.st49{fill:#A33B70;}
	.st50{fill:#A43B70;}
	.st51{fill:#A53C6F;}
	.st52{fill:#A63C6E;}
	.st53{fill:#A73C6D;}
	.st54{fill:#A83C6C;}
	.st55{fill:#A93C6B;}
	.st56{fill:#AA3D6A;}
	.st57{fill:#AB3D6A;}
	.st58{fill:#AC3D69;}
	.st59{fill:#AD3D68;}
	.st60{fill:#AE3E67;}
	.st61{fill:#AF3E66;}
	.st62{fill:#B03E65;}
	.st63{fill:#B13E64;}
	.st64{fill:#B23F63;}
	.st65{fill:#B33F62;}
	.st66{fill:#B43F61;}
	.st67{fill:#B53F60;}
	.st68{fill:#B6405F;}
	.st69{fill:#B7405E;}
	.st70{fill:#B8405D;}
	.st71{fill:#B9405D;}
	.st72{fill:#BA415C;}
	.st73{fill:#BB415B;}
	.st74{fill:#BC415A;}
	.st75{fill:#BD4159;}
	.st76{fill:#BE4158;}
	.st77{fill:#BF4257;}
	.st78{fill:#C04257;}
	.st79{fill:#C14256;}
	.st80{fill:#C24255;}
	.st81{fill:#C34354;}
	.st82{fill:#C44353;}
	.st83{fill:#C54352;}
	.st84{fill:#C64351;}
	.st85{fill:#C74350;}
	.st86{fill:#C84450;}
	.st87{fill:#C9444F;}
	.st88{fill:#CA444E;}
	.st89{fill:#CB444D;}
	.st90{fill:#CC454C;}
	.st91{fill:#CD454B;}
	.st92{fill:#CE454A;}
	.st93{fill:#CF454A;}
	.st94{fill:#D04549;}
	.st95{fill:#D14648;}
	.st96{fill:#D24647;}
	.st97{fill:#D34646;}
	.st98{fill:#D44645;}
	.st99{fill:#D54744;}
	.st100{fill:#D64743;}
	.st101{fill:#D74743;}
	.st102{fill:#D84742;}
	.st103{fill:#D94741;}
	.st104{fill:#DA4840;}
	.st105{fill:#DB483F;}
	.st106{fill:#DC483E;}
	.st107{fill:#DD483D;}
	.st108{fill:#DE493D;}
	.st109{fill:#DF493C;}
	.st110{fill:#E0493B;}
	.st111{fill:#E1493A;}
	.st112{fill:#E24939;}
	.st113{fill:#E34A38;}
	.st114{fill:#E44A37;}
	.st115{fill:#E54A36;}
	.st116{fill:#E64A36;}
	.st117{fill:#E74B35;}
	.st118{fill:#E84B34;}
	.st119{fill:#E94B34;}
	.st120{fill:#E84A35;}
	.st121{fill:#E84A36;}
	.st122{fill:#E84A37;}
	.st123{fill:#E84A38;}
	.st124{fill:#E74939;}
	.st125{fill:#E7493A;}
	.st126{fill:#E7493B;}
	.st127{fill:#E6493C;}
	.st128{fill:#E6483D;}
	.st129{fill:#E6483E;}
	.st130{fill:#E6483F;}
	.st131{fill:#E54840;}
	.st132{fill:#E54741;}
	.st133{fill:#E54742;}
	.st134{fill:#E44743;}
	.st135{fill:#E44644;}
	.st136{fill:#E44645;}
	.st137{fill:#E44646;}
	.st138{fill:#E34647;}
	.st139{fill:#E34548;}
	.st140{fill:#E34549;}
	.st141{fill:#E24549;}
	.st142{fill:#E2454A;}
	.st143{fill:#E2444B;}
	.st144{fill:#E1444C;}
	.st145{fill:#E1444D;}
	.st146{fill:#E1444E;}
	.st147{fill:#E1434F;}
	.st148{fill:#E04350;}
	.st149{fill:#E04351;}
	.st150{fill:#E04252;}
	.st151{fill:#DF4253;}
	.st152{fill:#DF4254;}
	.st153{fill:#DF4255;}
	.st154{fill:#DF4156;}
	.st155{fill:#DE4157;}
	.st156{fill:#DE4158;}
	.st157{fill:#DE4159;}
	.st158{fill:#DD405A;}
	.st159{fill:#DD405B;}
	.st160{fill:#DD405C;}
	.st161{fill:#DD405D;}
	.st162{fill:#DC3F5E;}
	.st163{fill:#DB3F60;}
	.st164{fill:#DA3F60;}
	.st165{fill:#D94061;}
	.st166{fill:#D84061;}
	.st167{fill:#D74062;}
	.st168{fill:#D64063;}
	.st169{fill:#D54163;}
	.st170{fill:#D44164;}
	.st171{fill:#D34165;}
	.st172{fill:#D24165;}
	.st173{fill:#D14166;}
	.st174{fill:#D04266;}
	.st175{fill:#CF4267;}
	.st176{fill:#CE4268;}
	.st177{fill:#CD4268;}
	.st178{fill:#CC4369;}
	.st179{fill:#CB4369;}
	.st180{fill:#CA436A;}
	.st181{fill:#C9436B;}
	.st182{fill:#C8436B;}
	.st183{fill:#C7446C;}
	.st184{fill:#C6446C;}
	.st185{fill:#C5446D;}
	.st186{fill:#C4446E;}
	.st187{fill:#C3456E;}
	.st188{fill:#C2456F;}
	.st189{fill:#C14570;}
	.st190{fill:#C04570;}
	.st191{fill:#BF4571;}
	.st192{fill:#BE4671;}
	.st193{fill:#BD4672;}
	.st194{fill:#BC4673;}
	.st195{fill:#BB4673;}
	.st196{fill:#BA4774;}
	.st197{fill:#B94774;}
	.st198{fill:#B84775;}
	.st199{fill:#B74776;}
	.st200{fill:#B64776;}
	.st201{fill:#B54877;}
	.st202{fill:#B44877;}
	.st203{fill:#B34878;}
	.st204{fill:#B24879;}
	.st205{fill:#B14979;}
	.st206{fill:#B0497A;}
	.st207{fill:#AF497B;}
	.st208{fill:#AE497B;}
	.st209{fill:#AD497C;}
	.st210{fill:#AC4A7C;}
	.st211{fill:#AB4A7D;}
	.st212{fill:#AA4A7E;}
	.st213{fill:#A94A7E;}
	.st214{fill:#A84B7F;}
	.st215{fill:#A74B7F;}
	.st216{fill:#A64B80;}
	.st217{fill:#A54B81;}
	.st218{fill:#A44B81;}
	.st219{fill:#A34C82;}
	.st220{fill:#A24C82;}
	.st221{fill:#A14C83;}
	.st222{fill:#A04C84;}
	.st223{fill:#9F4D84;}
	.st224{fill:#9E4D85;}
	.st225{fill:#9E4D86;}
	.st226{fill:#9D4D86;}
	.st227{fill:#9C4D87;}
	.st228{fill:#9B4E87;}
	.st229{fill:#9A4E88;}
	.st230{fill:#994E89;}
	.st231{fill:#984E89;}
	.st232{fill:#974F8A;}
	.st233{fill:#964F8A;}
	.st234{fill:#954F8B;}
	.st235{fill:#944F8C;}
	.st236{fill:#934F8C;}
	.st237{fill:#92508D;}
	.st238{fill:#91508D;}
	.st239{fill:#90508E;}
	.st240{fill:#8F508F;}
	.st241{fill:#8E518F;}
	.st242{fill:#8D5190;}
	.st243{fill:#8C5190;}
	.st244{fill:#8B5191;}
	.st245{fill:#8A5192;}
	.st246{fill:#895292;}
	.st247{fill:#885293;}
	.st248{fill:#875294;}
	.st249{fill:#865294;}
	.st250{fill:#855395;}
	.st251{fill:#845395;}
	.st252{fill:#835396;}
	.st253{fill:#825397;}
	.st254{fill:#815397;}
	.st255{fill:#805498;}
	.st256{fill:#7F5498;}
	.st257{fill:#7E5499;}
	.st258{fill:#7D549A;}
	.st259{fill:#7C559A;}
	.st260{fill:#7B559B;}
	.st261{fill:#7A559B;}
	.st262{fill:#79559C;}
	.st263{fill:#78559D;}
	.st264{fill:#77569D;}
	.st265{fill:#76569E;}
	.st266{fill:#75569F;}
	.st267{fill:#74569F;}
	.st268{fill:#7357A0;}
	.st269{fill:#7257A0;}
	.st270{fill:#7157A1;}
	.st271{fill:#7057A2;}
	.st272{fill:#6F57A2;}
	.st273{fill:#6E58A3;}
	.st274{fill:#6D58A3;}
	.st275{fill:#6C58A4;}
	.st276{fill:#6B58A5;}
	.st277{fill:#6A59A5;}
	.st278{fill:#6959A6;}
	.st279{fill:#6859A6;}
	.st280{fill:#6759A7;}
	.st281{fill:#6659A8;}
	.st282{fill:#655AA8;}
	.st283{fill:#645AA9;}
	.st284{fill:#635AAA;}
	.st285{fill:#625AAA;}
	.st286{fill:#615BAB;}
	.st287{fill:#605BAB;}
	.st288{fill:#5F5CAC;}
	.st289{fill:#5F5DAC;}
	.st290{fill:#5F5EAC;}
	.st291{fill:#5F5FAB;}
	.st292{fill:#5F60AB;}
	.st293{fill:#5F61AB;}
	.st294{fill:#5F62AB;}
	.st295{fill:#5F63AB;}
	.st296{fill:#5F64AB;}
	.st297{fill:#5F65AA;}
	.st298{fill:#5F66AA;}
	.st299{fill:#5F67AA;}
	.st300{fill:#5F68AA;}
	.st301{fill:#5F69AA;}
	.st302{fill:#5F6AAA;}
	.st303{fill:#5F6BA9;}
	.st304{fill:#5F6CA9;}
	.st305{fill:#5F6DA9;}
	.st306{fill:#5F6EA9;}
	.st307{fill:#5F6FA9;}
	.st308{fill:#5F70A9;}
	.st309{fill:#5F71A8;}
	.st310{fill:#5F72A8;}
	.st311{fill:#5F73A8;}
	.st312{fill:#5F74A8;}
	.st313{fill:#5F75A8;}
	.st314{fill:#5F76A8;}
	.st315{fill:#5F77A7;}
	.st316{fill:#5F78A7;}
	.st317{fill:#5F79A7;}
	.st318{fill:#5F7AA7;}
	.st319{fill:#5F7BA7;}
	.st320{fill:#5F7CA7;}
	.st321{fill:#5F7DA6;}
	.st322{fill:#5F7EA6;}
	.st323{fill:#5F7FA6;}
	.st324{fill:#5F80A6;}
	.st325{fill:#5F81A6;}
	.st326{fill:#5F82A6;}
	.st327{fill:#5F83A5;}
	.st328{fill:#5F84A5;}
	.st329{fill:#5F85A5;}
	.st330{fill:#5F86A5;}
	.st331{fill:#5F87A5;}
	.st332{fill:#5F88A5;}
	.st333{fill:#5F89A4;}
	.st334{fill:#5F8AA4;}
	.st335{fill:#5F8BA4;}
	.st336{fill:#5F8CA4;}
	.st337{fill:#5F8DA4;}
	.st338{fill:#5F8EA4;}
	.st339{fill:#5F8FA3;}
	.st340{fill:#5F90A3;}
	.st341{fill:#5F91A3;}
	.st342{fill:#5F92A3;}
	.st343{fill:#5F93A3;}
	.st344{fill:#5F94A3;}
	.st345{fill:#5F95A2;}
	.st346{fill:#5F96A2;}
	.st347{fill:#5F97A2;}
	.st348{fill:#5F98A2;}
	.st349{fill:#5F99A2;}
	.st350{fill:#5F9AA2;}
	.st351{fill:#5F9BA1;}
	.st352{fill:#5F9CA1;}
	.st353{fill:#5F9DA1;}
	.st354{fill:#5F9EA1;}
	.st355{fill:#5F9FA1;}
	.st356{fill:#5FA0A1;}
	.st357{fill:#5FA1A0;}
	.st358{fill:#5FA2A0;}
	.st359{fill:#5FA3A0;}
	.st360{fill:#5FA4A0;}
	.st361{fill:#5FA5A0;}
	.st362{fill:#5FA6A0;}
	.st363{fill:#5FA79F;}
	.st364{fill:#5FA89F;}
	.st365{fill:#5FA99F;}
	.st366{fill:#5FAA9F;}
	.st367{fill:#5FAB9F;}
	.st368{fill:#5FAC9F;}
	.st369{fill:#5FAD9E;}
	.st370{fill:#5FAE9E;}
	.st371{fill:#5FAF9E;}
	.st372{fill:#5FB09E;}
	.st373{fill:#5FB19E;}
	.st374{fill:#5FB29E;}
	.st375{fill:#5FB39D;}
	.st376{fill:#5FB49D;}
	.st377{fill:#5FB59D;}
	.st378{fill:#5FB69D;}
	.st379{fill:#5FB79D;}
	.st380{fill:#5FB89D;}
	.st381{fill:#5FB99C;}
	.st382{fill:#5FBA9C;}
	.st383{fill:#5FBB9C;}
	.st384{fill:#5FBC9C;}
	.st385{fill:#5FBD9C;}
	.st386{fill:#5FBE9C;}
	.st387{fill:#5FBF9B;}
	.st388{fill:#5FC09B;}
	.st389{fill:#5FC19B;}
	.st390{fill:#5FC29A;}
	.st391{fill:#5FC299;}
	.st392{fill:#5FC398;}
	.st393{fill:#60C397;}
	.st394{fill:#60C396;}
	.st395{fill:#60C395;}
	.st396{fill:#60C394;}
	.st397{fill:#60C393;}
	.st398{fill:#60C492;}
	.st399{fill:#60C491;}
	.st400{fill:#61C490;}
	.st401{fill:#61C48F;}
	.st402{fill:#61C48E;}
	.st403{fill:#61C48D;}
	.st404{fill:#61C58C;}
	.st405{fill:#61C58B;}
	.st406{fill:#62C58A;}
	.st407{fill:#62C589;}
	.st408{fill:#62C588;}
	.st409{fill:#62C587;}
	.st410{fill:#62C686;}
	.st411{fill:#62C685;}
	.st412{fill:#62C684;}
	.st413{fill:#63C683;}
	.st414{fill:#63C682;}
	.st415{fill:#63C681;}
	.st416{fill:#63C780;}
	.st417{fill:#63C77F;}
	.st418{fill:#63C77E;}
	.st419{fill:#63C77D;}
	.st420{fill:#64C77C;}
	.st421{fill:#64C87B;}
	.st422{fill:#64C87A;}
	.st423{fill:#64C879;}
	.st424{fill:#64C878;}
	.st425{fill:#64C877;}
	.st426{fill:#64C876;}
	.st427{fill:#65C975;}
	.st428{fill:#65C974;}
	.st429{fill:#65C973;}
	.st430{fill:#65C972;}
	.st431{fill:#65C971;}
	.st432{fill:#65C970;}
	.st433{fill:#65CA6F;}
	.st434{fill:#66CA6E;}
	.st435{fill:#66CA6D;}
	.st436{fill:#66CA6C;}
	.st437{fill:#66CA6B;}
	.st438{fill:#66CA6A;}
	.st439{fill:#66CB69;}
	.st440{fill:#67CB68;}
	.st441{fill:#67CB67;}
	.st442{fill:#67CB66;}
	.st443{fill:#67CB65;}
	.st444{fill:#67CB64;}
	.st445{fill:#67CC63;}
	.st446{fill:#67CC62;}
	.st447{fill:#68CC61;}
	.st448{fill:#68CC60;}
	.st449{fill:#68CC5F;}
	.st450{fill:#68CD5E;}
	.st451{fill:#68CD5D;}
	.st452{fill:#68CD5C;}
	.st453{fill:#69CD5B;}
	.st454{fill:#69CD5A;}
	.st455{fill:#69CE59;}
	.st456{fill:#69CE58;}
	.st457{fill:#69CE57;}
	.st458{fill:#69CE56;}
	.st459{fill:#69CE55;}
	.st460{fill:#6ACE54;}
	.st461{fill:#6ACF53;}
	.st462{fill:#6ACF52;}
	.st463{fill:#6ACF51;}
	.st464{fill:#6ACF50;}
	.st465{fill:#6ACF4F;}
	.st466{fill:#6BCF4E;}
	.st467{fill:#6BD04D;}
	.st468{fill:#6BD04C;}
	.st469{fill:#6BD04B;}
	.st470{fill:#6BD04A;}
	.st471{fill:#6BD049;}
	.st472{fill:#6BD048;}
	.st473{fill:#6CD147;}
	.st474{fill:#6CD146;}
	.st475{fill:#6CD145;}
	.st476{fill:#6CD144;}
	.st477{fill:#6CD143;}
	.st478{fill:#6CD142;}
	.st479{fill:#6CD241;}
	.st480{fill:#6DD240;}
	.st481{fill:#6DD23F;}
	.st482{fill:#6DD23E;}
	.st483{fill:#6DD23D;}
	.st484{fill:#6DD33C;}
	.st485{fill:#6DD33B;}
	.st486{fill:#6DD33A;}
	.st487{fill:#6ED339;}
	.st488{fill:#6ED338;}
	.st489{fill:#6ED337;}
	.st490{fill:#6ED436;}
	.st491{fill:#6ED435;}
	.st492{fill:#6ED434;}
	.st493{fill:#6ED433;}
	.st494{fill:#6FD432;}
	.st495{fill:#6FD431;}
	.st496{fill:#6FD530;}
	.st497{fill:#6FD52F;}
	.st498{fill:#6FD52E;}
	.st499{fill:#6FD52D;}
	.st500{fill:#70D52C;}
	.st501{fill:#70D52B;}
	.st502{fill:#70D62A;}
	.st503{fill:#70D629;}
	.st504{fill:#70D628;}
	.st505{fill:#70D627;}
	.st506{fill:#70D626;}
	.st507{fill:#71D625;}
	.st508{fill:#71D724;}
	.st509{fill:#71D723;}
	.st510{fill:#72D722;}
	.st511{fill:#73D722;}
	.st512{fill:#74D722;}
	.st513{fill:#75D822;}
	.st514{fill:#76D823;}
	.st515{fill:#77D823;}
	.st516{fill:#78D823;}
	.st517{fill:#79D823;}
	.st518{fill:#7AD823;}
	.st519{fill:#7BD823;}
	.st520{fill:#7CD823;}
	.st521{fill:#7DD923;}
	.st522{fill:#7ED923;}
	.st523{fill:#7FD924;}
	.st524{fill:#80D924;}
	.st525{fill:#81D924;}
	.st526{fill:#82D924;}
	.st527{fill:#83D924;}
	.st528{fill:#84D924;}
	.st529{fill:#85DA24;}
	.st530{fill:#86DA24;}
	.st531{fill:#87DA24;}
	.st532{fill:#88DA25;}
	.st533{fill:#89DA25;}
	.st534{fill:#8ADA25;}
	.st535{fill:#8BDA25;}
	.st536{fill:#8CDB25;}
	.st537{fill:#8DDB25;}
	.st538{fill:#8EDB25;}
	.st539{fill:#8FDB25;}
	.st540{fill:#90DB25;}
	.st541{fill:#91DB26;}
	.st542{fill:#92DB26;}
	.st543{fill:#93DB26;}
	.st544{fill:#94DC26;}
	.st545{fill:#95DC26;}
	.st546{fill:#96DC26;}
	.st547{fill:#97DC26;}
	.st548{fill:#98DC26;}
	.st549{fill:#99DC26;}
	.st550{fill:#9ADC26;}
	.st551{fill:#9BDD27;}
	.st552{fill:#9CDD27;}
	.st553{fill:#9DDD27;}
	.st554{fill:#9EDD27;}
	.st555{fill:#9FDD27;}
	.st556{fill:#A0DD27;}
	.st557{fill:#A1DD27;}
	.st558{fill:#A2DD27;}
	.st559{fill:#A3DE27;}
	.st560{fill:#A4DE28;}
	.st561{fill:#A5DE28;}
	.st562{fill:#A6DE28;}
	.st563{fill:#A7DE28;}
	.st564{fill:#A8DE28;}
	.st565{fill:#A9DE28;}
	.st566{fill:#AADE28;}
	.st567{fill:#ABDF28;}
	.st568{fill:#ACDF28;}
	.st569{fill:#ADDF29;}
	.st570{fill:#AEDF29;}
	.st571{fill:#AFDF29;}
	.st572{fill:#B0DF29;}
	.st573{fill:#B1DF29;}
	.st574{fill:#B2E029;}
	.st575{fill:#B3E029;}
	.st576{fill:#B4E029;}
	.st577{fill:#B5E029;}
	.st578{fill:#B6E02A;}
	.st579{fill:#B7E02A;}
	.st580{fill:#B8E02A;}
	.st581{fill:#B9E02A;}
	.st582{fill:#BAE12A;}
	.st583{fill:#BBE12A;}
	.st584{fill:#BCE12A;}
	.st585{fill:#BDE12A;}
	.st586{fill:#BEE12A;}
	.st587{fill:#BFE12B;}
	.st588{fill:#C0E12B;}
	.st589{fill:#C1E22B;}
	.st590{fill:#C2E22B;}
	.st591{fill:#C3E22B;}
	.st592{fill:#C4E22B;}
	.st593{fill:#C5E22B;}
	.st594{fill:#C6E22B;}
	.st595{fill:#C7E22B;}
	.st596{fill:#C8E22C;}
	.st597{fill:#C9E32C;}
	.st598{fill:#CAE32C;}
	.st599{fill:#CBE32C;}
	.st600{fill:#CCE32C;}
	.st601{fill:#CDE32C;}
	.st602{fill:#CEE32C;}
	.st603{fill:#CFE32C;}
	.st604{fill:#D0E32C;}
	.st605{fill:#D1E42D;}
	.st606{fill:#D2E42D;}
	.st607{fill:#D3E42D;}
	.st608{fill:#D4E42D;}
	.st609{fill:#D5E42D;}
	.st610{fill:#D6E42D;}
	.st611{fill:#D7E42D;}
	.st612{fill:#D8E52D;}
	.st613{fill:#D9E52D;}
	.st614{fill:#DAE52D;}
	.st615{fill:#DBE52E;}
	.st616{fill:#DCE52E;}
	.st617{fill:#DDE52E;}
	.st618{fill:#DEE52E;}
	.st619{fill:#DFE52E;}
	.st620{fill:#E0E62E;}
	.st621{fill:#E1E62E;}
	.st622{fill:#E2E62E;}
	.st623{fill:#E3E62E;}
	.st624{fill:#E4E62F;}
	.st625{fill:#E5E62F;}
	.st626{fill:#E6E62F;}
	.st627{fill:#E7E72F;}
	.st628{fill:#E8E72F;}
	.st629{fill:#E9E72F;}
	.st630{fill:#EAE72F;}
	.st631{fill:#EBE72F;}
	.st632{fill:#ECE72F;}
	.st633{fill:#EDE730;}
	.st634{fill:#EEE730;}
	.st635{fill:#EFE830;}
	.st636{fill:#F0E830;}
	.st637{fill:#F1E830;}
	.st638{fill:#F2E830;}
	.st639{fill:#F3E830;}
	.st640{fill:#F4E830;}
	.st641{fill:#F5E830;}
	.st642{fill:#F6E831;}
	.st643{fill:#F7E931;}
	.st644{fill:#F8E931;}
	.st645{fill:#F9E931;}
	.st646{font-family:'HucklebuckJF';}
	.st647{font-size:120.2477px;}
	.st648{clip-path:url(#SVGID_4_);}
	.st649{fill:#FFFFFF;stroke:#000000;stroke-miterlimit:10;}
</style>
<polyline class="st7" points="530,55.6 458.8,55.6 387.4,55.6 316,55.6 244.6,55.6 173.2,55.6 101.8,55.6 30.3,55.6 "/>
<g>
	<defs>
		<text id="SVGID_3_" transform="matrix(1 0 0 1 -3.289795e-02 103.5058)" class="st646 st647">Pura Desa</text>
	</defs>
	<clipPath id="SVGID_2_">
		<use xlink:href="#SVGID_3_"  style="overflow:visible;"/>
	</clipPath>
	<g class="st8">
		<rect x="0.4" class="st0" width="60" height="111.2"/>
		<rect x="36.1" y="0" class="st0" width="60" height="111.2"/>
		<rect x="71.8" y="0" class="st0" width="60" height="111.2"/>
		<rect x="72.3" y="0" class="st163" width="60" height="111.2"/>
		<rect x="72.9" y="0" class="st164" width="60" height="111.2"/>
		<rect x="73.5" y="0" class="st165" width="60" height="111.2"/>
		<rect x="74" y="0" class="st166" width="60" height="111.2"/>
		<rect x="74.6" y="0" class="st167" width="60" height="111.2"/>
		<rect x="75.2" y="0" class="st168" width="60" height="111.2"/>
		<rect x="75.7" y="0" class="st169" width="60" height="111.2"/>
		<rect x="76.3" y="0" class="st170" width="60" height="111.2"/>
		<rect x="76.9" y="0" class="st171" width="60" height="111.2"/>
		<rect x="77.4" y="0" class="st172" width="60" height="111.2"/>
		<rect x="78" y="0" class="st173" width="60" height="111.2"/>
		<rect x="78.6" y="0" class="st174" width="60" height="111.2"/>
		<rect x="79.1" y="0" class="st175" width="60" height="111.2"/>
		<rect x="79.7" y="0" class="st176" width="60" height="111.2"/>
		<rect x="80.3" y="0" class="st177" width="60" height="111.2"/>
		<rect x="80.8" y="0" class="st178" width="60" height="111.2"/>
		<rect x="81.4" y="0" class="st179" width="60" height="111.2"/>
		<rect x="82" y="0" class="st180" width="60" height="111.2"/>
		<rect x="82.5" y="0" class="st181" width="60" height="111.2"/>
		<rect x="83.1" y="0" class="st182" width="60" height="111.2"/>
		<rect x="83.7" y="0" class="st183" width="60" height="111.2"/>
		<rect x="84.2" y="0" class="st184" width="60" height="111.2"/>
		<rect x="84.8" y="0" class="st185" width="60" height="111.2"/>
		<rect x="85.4" y="0" class="st186" width="60" height="111.2"/>
		<rect x="85.9" y="0" class="st187" width="60" height="111.2"/>
		<rect x="86.5" y="0" class="st188" width="60" height="111.2"/>
		<rect x="87.1" y="0" class="st189" width="60" height="111.2"/>
		<rect x="87.6" y="0" class="st190" width="60" height="111.2"/>
		<rect x="88.2" y="0" class="st191" width="60" height="111.2"/>
		<rect x="88.8" y="0" class="st192" width="60" height="111.2"/>
		<rect x="89.3" y="0" class="st193" width="60" height="111.2"/>
		<rect x="89.9" y="0" class="st194" width="60" height="111.2"/>
		<rect x="90.5" y="0" class="st195" width="60" height="111.2"/>
		<rect x="91" y="0" class="st196" width="60" height="111.2"/>
		<rect x="91.6" y="0" class="st197" width="60" height="111.2"/>
		<rect x="92.2" y="0" class="st198" width="60" height="111.2"/>
		<rect x="92.7" y="0" class="st199" width="60" height="111.2"/>
		<rect x="93.3" y="0" class="st200" width="60" height="111.2"/>
		<rect x="93.9" y="0" class="st201" width="60" height="111.2"/>
		<rect x="94.4" y="0" class="st202" width="60" height="111.2"/>
		<rect x="95" y="0" class="st203" width="60" height="111.2"/>
		<rect x="95.6" y="0" class="st204" width="60" height="111.2"/>
		<rect x="96.1" y="0" class="st205" width="60" height="111.2"/>
		<rect x="96.7" y="0" class="st206" width="60" height="111.2"/>
		<rect x="97.3" y="0" class="st207" width="60" height="111.2"/>
		<rect x="97.8" y="0" class="st208" width="60" height="111.2"/>
		<rect x="98.4" y="0" class="st209" width="60" height="111.2"/>
		<rect x="99" y="0" class="st210" width="60" height="111.2"/>
		<rect x="99.5" y="0" class="st211" width="60" height="111.2"/>
		<rect x="100.1" y="0" class="st212" width="60" height="111.2"/>
		<rect x="100.7" y="0" class="st213" width="60" height="111.2"/>
		<rect x="101.2" y="0" class="st214" width="60" height="111.2"/>
		<rect x="101.8" y="0" class="st215" width="60" height="111.2"/>
		<rect x="102.4" y="0" class="st216" width="60" height="111.2"/>
		<rect x="102.9" y="0" class="st217" width="60" height="111.2"/>
		<rect x="103.5" y="0" class="st218" width="60" height="111.2"/>
		<rect x="104.1" y="0" class="st219" width="60" height="111.2"/>
		<rect x="104.6" y="0" class="st220" width="60" height="111.2"/>
		<rect x="105.2" y="0" class="st221" width="60" height="111.2"/>
		<rect x="105.8" y="0" class="st222" width="60" height="111.2"/>
		<rect x="106.3" y="0" class="st223" width="60" height="111.2"/>
		<rect x="106.9" y="0" class="st224" width="60" height="111.2"/>
		<rect x="107.5" y="0" class="st225" width="60" height="111.2"/>
		<rect x="108" y="0" class="st226" width="60" height="111.2"/>
		<rect x="108.6" y="0" class="st227" width="60" height="111.2"/>
		<rect x="109.2" y="0" class="st228" width="60" height="111.2"/>
		<rect x="109.7" y="0" class="st229" width="60" height="111.2"/>
		<rect x="110.3" y="0" class="st230" width="60" height="111.2"/>
		<rect x="110.9" y="0" class="st231" width="60" height="111.2"/>
		<rect x="111.4" y="0" class="st232" width="60" height="111.2"/>
		<rect x="112" y="0" class="st233" width="60" height="111.2"/>
		<rect x="112.6" y="0" class="st234" width="60" height="111.2"/>
		<rect x="113.1" y="0" class="st235" width="60" height="111.2"/>
		<rect x="113.7" y="0" class="st236" width="60" height="111.2"/>
		<rect x="114.3" y="0" class="st237" width="60" height="111.2"/>
		<rect x="114.8" y="0" class="st238" width="60" height="111.2"/>
		<rect x="115.4" y="0" class="st239" width="60" height="111.2"/>
		<rect x="116" y="0" class="st240" width="60" height="111.2"/>
		<rect x="116.5" y="0" class="st241" width="60" height="111.2"/>
		<rect x="117.1" y="0" class="st242" width="60" height="111.2"/>
		<rect x="117.7" y="0" class="st243" width="60" height="111.2"/>
		<rect x="118.2" y="0" class="st244" width="60" height="111.2"/>
		<rect x="118.8" y="0" class="st245" width="60" height="111.2"/>
		<rect x="119.4" y="0" class="st246" width="60" height="111.2"/>
		<rect x="119.9" y="0" class="st247" width="60" height="111.2"/>
		<rect x="120.5" y="0" class="st248" width="60" height="111.2"/>
		<rect x="121.1" y="0" class="st249" width="60" height="111.2"/>
		<rect x="121.6" y="0" class="st250" width="60" height="111.2"/>
		<rect x="122.2" y="0" class="st251" width="60" height="111.2"/>
		<rect x="122.8" y="0" class="st252" width="60" height="111.2"/>
		<rect x="123.3" y="0" class="st253" width="60" height="111.2"/>
		<rect x="123.9" y="0" class="st254" width="60" height="111.2"/>
		<rect x="124.5" y="0" class="st255" width="60" height="111.2"/>
		<rect x="125" y="0" class="st256" width="60" height="111.2"/>
		<rect x="125.6" y="0" class="st257" width="60" height="111.2"/>
		<rect x="126.2" y="0" class="st258" width="60" height="111.2"/>
		<rect x="126.7" y="0" class="st259" width="60" height="111.2"/>
		<rect x="127.3" y="0" class="st260" width="60" height="111.2"/>
		<rect x="127.9" y="0" class="st261" width="60" height="111.2"/>
		<rect x="128.4" y="0" class="st262" width="60" height="111.2"/>
		<rect x="129" y="0" class="st263" width="60" height="111.2"/>
		<rect x="129.6" y="0" class="st264" width="60" height="111.2"/>
		<rect x="130.1" y="0" class="st265" width="60" height="111.2"/>
		<rect x="130.7" y="0" class="st266" width="60" height="111.2"/>
		<rect x="131.3" y="0" class="st267" width="60" height="111.2"/>
		<rect x="131.8" y="0" class="st268" width="60" height="111.2"/>
		<rect x="132.4" y="0" class="st269" width="60" height="111.2"/>
		<rect x="133" y="0" class="st270" width="60" height="111.2"/>
		<rect x="133.5" y="0" class="st271" width="60" height="111.2"/>
		<rect x="134.1" y="0" class="st272" width="60" height="111.2"/>
		<rect x="134.7" y="0" class="st273" width="60" height="111.2"/>
		<rect x="135.2" y="0" class="st274" width="60" height="111.2"/>
		<rect x="135.8" y="0" class="st275" width="60" height="111.2"/>
		<rect x="136.4" y="0" class="st276" width="60" height="111.2"/>
		<rect x="136.9" y="0" class="st277" width="60" height="111.2"/>
		<rect x="137.5" y="0" class="st278" width="60" height="111.2"/>
		<rect x="138.1" y="0" class="st279" width="60" height="111.2"/>
		<rect x="138.6" y="0" class="st280" width="60" height="111.2"/>
		<rect x="139.2" y="0" class="st281" width="60" height="111.2"/>
		<rect x="139.8" y="0" class="st282" width="60" height="111.2"/>
		<rect x="140.3" y="0" class="st283" width="60" height="111.2"/>
		<rect x="140.9" y="0" class="st284" width="60" height="111.2"/>
		<rect x="141.5" y="0" class="st285" width="60" height="111.2"/>
		<rect x="142" y="0" class="st286" width="60" height="111.2"/>
		<rect x="142.6" y="0" class="st287" width="60" height="111.2"/>
		<rect x="143.2" y="0" class="st1" width="60" height="111.2"/>
		<rect x="178.9" y="0" class="st1" width="60" height="111.2"/>
		<rect x="214.6" y="0" class="st1" width="60" height="111.2"/>
		<rect x="215.3" y="0" class="st288" width="60" height="111.2"/>
		<rect x="215.9" y="0" class="st289" width="60" height="111.2"/>
		<rect x="216.6" y="0" class="st290" width="60" height="111.2"/>
		<rect x="217.3" y="0" class="st291" width="60" height="111.2"/>
		<rect x="218" y="0" class="st292" width="60" height="111.2"/>
		<rect x="218.7" y="0" class="st293" width="60" height="111.2"/>
		<rect x="219.4" y="0" class="st294" width="60" height="111.2"/>
		<rect x="220.1" y="0" class="st295" width="60" height="111.2"/>
		<rect x="220.7" y="0" class="st296" width="60" height="111.2"/>
		<rect x="221.4" y="0" class="st297" width="60" height="111.2"/>
		<rect x="222.1" y="0" class="st298" width="60" height="111.2"/>
		<rect x="222.8" y="0" class="st299" width="60" height="111.2"/>
		<rect x="223.5" y="0" class="st300" width="60" height="111.2"/>
		<rect x="224.2" y="0" class="st301" width="60" height="111.2"/>
		<rect x="224.9" y="0" class="st302" width="60" height="111.2"/>
		<rect x="225.6" y="0" class="st303" width="60" height="111.2"/>
		<rect x="226.2" y="0" class="st304" width="60" height="111.2"/>
		<rect x="226.9" y="0" class="st305" width="60" height="111.2"/>
		<rect x="227.6" y="0" class="st306" width="60" height="111.2"/>
		<rect x="228.3" y="0" class="st307" width="60" height="111.2"/>
		<rect x="229" y="0" class="st308" width="60" height="111.2"/>
		<rect x="229.7" y="0" class="st309" width="60" height="111.2"/>
		<rect x="230.4" y="0" class="st310" width="60" height="111.2"/>
		<rect x="231" y="0" class="st311" width="60" height="111.2"/>
		<rect x="231.7" y="0" class="st312" width="60" height="111.2"/>
		<rect x="232.4" y="0" class="st313" width="60" height="111.2"/>
		<rect x="233.1" y="0" class="st314" width="60" height="111.2"/>
		<rect x="233.8" y="0" class="st315" width="60" height="111.2"/>
		<rect x="234.5" y="0" class="st316" width="60" height="111.2"/>
		<rect x="235.2" y="0" class="st317" width="60" height="111.2"/>
		<rect x="235.9" y="0" class="st318" width="60" height="111.2"/>
		<rect x="236.5" y="0" class="st319" width="60" height="111.2"/>
		<rect x="237.2" y="0" class="st320" width="60" height="111.2"/>
		<rect x="237.9" y="0" class="st321" width="60" height="111.2"/>
		<rect x="238.6" y="0" class="st322" width="60" height="111.2"/>
		<rect x="239.3" y="0" class="st323" width="60" height="111.2"/>
		<rect x="240" y="0" class="st324" width="60" height="111.2"/>
		<rect x="240.7" y="0" class="st325" width="60" height="111.2"/>
		<rect x="241.3" y="0" class="st326" width="60" height="111.2"/>
		<rect x="242" y="0" class="st327" width="60" height="111.2"/>
		<rect x="242.7" y="0" class="st328" width="60" height="111.2"/>
		<rect x="243.4" y="0" class="st329" width="60" height="111.2"/>
		<rect x="244.1" y="0" class="st330" width="60" height="111.2"/>
		<rect x="244.8" y="0" class="st331" width="60" height="111.2"/>
		<rect x="245.5" y="0" class="st332" width="60" height="111.2"/>
		<rect x="246.2" y="0" class="st333" width="60" height="111.2"/>
		<rect x="246.8" y="0" class="st334" width="60" height="111.2"/>
		<rect x="247.5" y="0" class="st335" width="60" height="111.2"/>
		<rect x="248.2" y="0" class="st336" width="60" height="111.2"/>
		<rect x="248.9" y="0" class="st337" width="60" height="111.2"/>
		<rect x="249.6" y="0" class="st338" width="60" height="111.2"/>
		<rect x="250.3" y="0" class="st338" width="60" height="111.2"/>
		<rect x="251" y="0" class="st339" width="60" height="111.2"/>
		<rect x="251.6" y="0" class="st340" width="60" height="111.2"/>
		<rect x="252.3" y="0" class="st341" width="60" height="111.2"/>
		<rect x="253" y="0" class="st342" width="60" height="111.2"/>
		<rect x="253.7" y="0" class="st343" width="60" height="111.2"/>
		<rect x="254.4" y="0" class="st344" width="60" height="111.2"/>
		<rect x="255.1" y="0" class="st345" width="60" height="111.2"/>
		<rect x="255.8" y="0" class="st346" width="60" height="111.2"/>
		<rect x="256.4" y="0" class="st347" width="60" height="111.2"/>
		<rect x="257.1" y="0" class="st348" width="60" height="111.2"/>
		<rect x="257.8" y="0" class="st349" width="60" height="111.2"/>
		<rect x="258.5" y="0" class="st350" width="60" height="111.2"/>
		<rect x="259.2" y="0" class="st351" width="60" height="111.2"/>
		<rect x="259.9" y="0" class="st352" width="60" height="111.2"/>
		<rect x="260.6" y="0" class="st353" width="60" height="111.2"/>
		<rect x="261.3" y="0" class="st354" width="60" height="111.2"/>
		<rect x="261.9" y="0" class="st355" width="60" height="111.2"/>
		<rect x="262.6" y="0" class="st356" width="60" height="111.2"/>
		<rect x="263.3" y="0" class="st357" width="60" height="111.2"/>
		<rect x="264" y="0" class="st358" width="60" height="111.2"/>
		<rect x="264.7" y="0" class="st359" width="60" height="111.2"/>
		<rect x="265.4" y="0" class="st360" width="60" height="111.2"/>
		<rect x="266.1" y="0" class="st361" width="60" height="111.2"/>
		<rect x="266.7" y="0" class="st362" width="60" height="111.2"/>
		<rect x="267.4" y="0" class="st363" width="60" height="111.2"/>
		<rect x="268.1" y="0" class="st364" width="60" height="111.2"/>
		<rect x="268.8" y="0" class="st365" width="60" height="111.2"/>
		<rect x="269.5" y="0" class="st366" width="60" height="111.2"/>
		<rect x="270.2" y="0" class="st367" width="60" height="111.2"/>
		<rect x="270.9" y="0" class="st368" width="60" height="111.2"/>
		<rect x="271.6" y="0" class="st369" width="60" height="111.2"/>
		<rect x="272.2" y="0" class="st370" width="60" height="111.2"/>
		<rect x="272.9" y="0" class="st371" width="60" height="111.2"/>
		<rect x="273.6" y="0" class="st372" width="60" height="111.2"/>
		<rect x="274.3" y="0" class="st373" width="60" height="111.2"/>
		<rect x="275" y="0" class="st374" width="60" height="111.2"/>
		<rect x="275.7" y="0" class="st375" width="60" height="111.2"/>
		<rect x="276.4" y="0" class="st376" width="60" height="111.2"/>
		<rect x="277" y="0" class="st377" width="60" height="111.2"/>
		<rect x="277.7" y="0" class="st378" width="60" height="111.2"/>
		<rect x="278.4" y="0" class="st379" width="60" height="111.2"/>
		<rect x="279.1" y="0" class="st380" width="60" height="111.2"/>
		<rect x="279.8" y="0" class="st381" width="60" height="111.2"/>
		<rect x="280.5" y="0" class="st382" width="60" height="111.2"/>
		<rect x="281.2" y="0" class="st383" width="60" height="111.2"/>
		<rect x="281.9" y="0" class="st384" width="60" height="111.2"/>
		<rect x="282.5" y="0" class="st385" width="60" height="111.2"/>
		<rect x="283.2" y="0" class="st386" width="60" height="111.2"/>
		<rect x="283.9" y="0" class="st387" width="60" height="111.2"/>
		<rect x="284.6" y="0" class="st388" width="60" height="111.2"/>
		<rect x="285.3" y="0" class="st389" width="60" height="111.2"/>
		<rect x="286" y="0" class="st2" width="60" height="111.2"/>
		<rect x="321.7" y="0" class="st2" width="60" height="111.2"/>
		<rect x="357.4" y="0" class="st2" width="60" height="111.2"/>
		<rect x="358" y="0" class="st390" width="60" height="111.2"/>
		<rect x="358.5" y="0" class="st391" width="60" height="111.2"/>
		<rect x="359.1" y="0" class="st392" width="60" height="111.2"/>
		<rect x="359.7" y="0" class="st393" width="60" height="111.2"/>
		<rect x="360.3" y="0" class="st394" width="60" height="111.2"/>
		<rect x="360.9" y="0" class="st395" width="60" height="111.2"/>
		<rect x="361.5" y="0" class="st396" width="60" height="111.2"/>
		<rect x="362.1" y="0" class="st397" width="60" height="111.2"/>
		<rect x="362.6" y="0" class="st398" width="60" height="111.2"/>
		<rect x="363.2" y="0" class="st399" width="60" height="111.2"/>
		<rect x="363.8" y="0" class="st400" width="60" height="111.2"/>
		<rect x="364.4" y="0" class="st401" width="60" height="111.2"/>
		<rect x="365" y="0" class="st402" width="60" height="111.2"/>
		<rect x="365.6" y="0" class="st403" width="60" height="111.2"/>
		<rect x="366.2" y="0" class="st404" width="60" height="111.2"/>
		<rect x="366.7" y="0" class="st405" width="60" height="111.2"/>
		<rect x="367.3" y="0" class="st406" width="60" height="111.2"/>
		<rect x="367.9" y="0" class="st407" width="60" height="111.2"/>
		<rect x="368.5" y="0" class="st408" width="60" height="111.2"/>
		<rect x="369.1" y="0" class="st409" width="60" height="111.2"/>
		<rect x="369.7" y="0" class="st410" width="60" height="111.2"/>
		<rect x="370.3" y="0" class="st411" width="60" height="111.2"/>
		<rect x="370.8" y="0" class="st412" width="60" height="111.2"/>
		<rect x="371.4" y="0" class="st413" width="60" height="111.2"/>
		<rect x="372" y="0" class="st414" width="60" height="111.2"/>
		<rect x="372.6" y="0" class="st415" width="60" height="111.2"/>
		<rect x="373.2" y="0" class="st416" width="60" height="111.2"/>
		<rect x="373.8" y="0" class="st417" width="60" height="111.2"/>
		<rect x="374.3" y="0" class="st418" width="60" height="111.2"/>
		<rect x="374.9" y="0" class="st419" width="60" height="111.2"/>
		<rect x="375.5" y="0" class="st420" width="60" height="111.2"/>
		<rect x="376.1" y="0" class="st421" width="60" height="111.2"/>
		<rect x="376.7" y="0" class="st422" width="60" height="111.2"/>
		<rect x="377.3" y="0" class="st423" width="60" height="111.2"/>
		<rect x="377.9" y="0" class="st424" width="60" height="111.2"/>
		<rect x="378.4" y="0" class="st425" width="60" height="111.2"/>
		<rect x="379" y="0" class="st426" width="60" height="111.2"/>
		<rect x="379.6" y="0" class="st427" width="60" height="111.2"/>
		<rect x="380.2" y="0" class="st428" width="60" height="111.2"/>
		<rect x="380.8" y="0" class="st429" width="60" height="111.2"/>
		<rect x="381.4" y="0" class="st430" width="60" height="111.2"/>
		<rect x="382" y="0" class="st431" width="60" height="111.2"/>
		<rect x="382.5" y="0" class="st432" width="60" height="111.2"/>
		<rect x="383.1" y="0" class="st433" width="60" height="111.2"/>
		<rect x="383.7" y="0" class="st434" width="60" height="111.2"/>
		<rect x="384.3" y="0" class="st435" width="60" height="111.2"/>
		<rect x="384.9" y="0" class="st436" width="60" height="111.2"/>
		<rect x="385.5" y="0" class="st437" width="60" height="111.2"/>
		<rect x="386.1" y="0" class="st438" width="60" height="111.2"/>
		<rect x="386.6" y="0" class="st439" width="60" height="111.2"/>
		<rect x="387.2" y="0" class="st440" width="60" height="111.2"/>
		<rect x="387.8" y="0" class="st441" width="60" height="111.2"/>
		<rect x="388.4" y="0" class="st442" width="60" height="111.2"/>
		<rect x="389" y="0" class="st443" width="60" height="111.2"/>
		<rect x="389.6" y="0" class="st444" width="60" height="111.2"/>
		<rect x="390.2" y="0" class="st445" width="60" height="111.2"/>
		<rect x="390.7" y="0" class="st446" width="60" height="111.2"/>
		<rect x="391.3" y="0" class="st447" width="60" height="111.2"/>
		<rect x="391.9" y="0" class="st448" width="60" height="111.2"/>
		<rect x="392.5" y="0" class="st449" width="60" height="111.2"/>
		<rect x="393.1" y="0" class="st450" width="60" height="111.2"/>
		<rect x="393.7" y="0" class="st450" width="60" height="111.2"/>
		<rect x="394.2" y="0" class="st451" width="60" height="111.2"/>
		<rect x="394.8" y="0" class="st452" width="60" height="111.2"/>
		<rect x="395.4" y="0" class="st453" width="60" height="111.2"/>
		<rect x="396" y="0" class="st454" width="60" height="111.2"/>
		<rect x="396.6" y="0" class="st455" width="60" height="111.2"/>
		<rect x="397.2" y="0" class="st456" width="60" height="111.2"/>
		<rect x="397.8" y="0" class="st457" width="60" height="111.2"/>
		<rect x="398.3" y="0" class="st458" width="60" height="111.2"/>
		<rect x="398.9" y="0" class="st459" width="60" height="111.2"/>
		<rect x="399.5" y="0" class="st460" width="60" height="111.2"/>
		<rect x="400.1" y="0" class="st461" width="60" height="111.2"/>
		<rect x="400.7" y="0" class="st462" width="60" height="111.2"/>
		<rect x="401.3" y="0" class="st463" width="60" height="111.2"/>
		<rect x="401.9" y="0" class="st464" width="60" height="111.2"/>
		<rect x="402.4" y="0" class="st465" width="60" height="111.2"/>
		<rect x="403" y="0" class="st466" width="60" height="111.2"/>
		<rect x="403.6" y="0" class="st467" width="60" height="111.2"/>
		<rect x="404.2" y="0" class="st468" width="60" height="111.2"/>
		<rect x="404.8" y="0" class="st469" width="60" height="111.2"/>
		<rect x="405.4" y="0" class="st470" width="60" height="111.2"/>
		<rect x="406" y="0" class="st471" width="60" height="111.2"/>
		<rect x="406.5" y="0" class="st472" width="60" height="111.2"/>
		<rect x="407.1" y="0" class="st473" width="60" height="111.2"/>
		<rect x="407.7" y="0" class="st474" width="60" height="111.2"/>
		<rect x="408.3" y="0" class="st475" width="60" height="111.2"/>
		<rect x="408.9" y="0" class="st476" width="60" height="111.2"/>
		<rect x="409.5" y="0" class="st477" width="60" height="111.2"/>
		<rect x="410.1" y="0" class="st478" width="60" height="111.2"/>
		<rect x="410.6" y="0" class="st479" width="60" height="111.2"/>
		<rect x="411.2" y="0" class="st480" width="60" height="111.2"/>
		<rect x="411.8" y="0" class="st481" width="60" height="111.2"/>
		<rect x="412.4" y="0" class="st482" width="60" height="111.2"/>
		<rect x="413" y="0" class="st483" width="60" height="111.2"/>
		<rect x="413.6" y="0" class="st484" width="60" height="111.2"/>
		<rect x="414.1" y="0" class="st485" width="60" height="111.2"/>
		<rect x="414.7" y="0" class="st486" width="60" height="111.2"/>
		<rect x="415.3" y="0" class="st487" width="60" height="111.2"/>
		<rect x="415.9" y="0" class="st488" width="60" height="111.2"/>
		<rect x="416.5" y="0" class="st489" width="60" height="111.2"/>
		<rect x="417.1" y="0" class="st490" width="60" height="111.2"/>
		<rect x="417.7" y="0" class="st491" width="60" height="111.2"/>
		<rect x="418.2" y="0" class="st492" width="60" height="111.2"/>
		<rect x="418.8" y="0" class="st493" width="60" height="111.2"/>
		<rect x="419.4" y="0" class="st494" width="60" height="111.2"/>
		<rect x="420" y="0" class="st495" width="60" height="111.2"/>
		<rect x="420.6" y="0" class="st496" width="60" height="111.2"/>
		<rect x="421.2" y="0" class="st497" width="60" height="111.2"/>
		<rect x="421.8" y="0" class="st498" width="60" height="111.2"/>
		<rect x="422.3" y="0" class="st499" width="60" height="111.2"/>
		<rect x="422.9" y="0" class="st500" width="60" height="111.2"/>
		<rect x="423.5" y="0" class="st501" width="60" height="111.2"/>
		<rect x="424.1" y="0" class="st502" width="60" height="111.2"/>
		<rect x="424.7" y="0" class="st503" width="60" height="111.2"/>
		<rect x="425.3" y="0" class="st504" width="60" height="111.2"/>
		<rect x="425.9" y="0" class="st505" width="60" height="111.2"/>
		<rect x="426.4" y="0" class="st506" width="60" height="111.2"/>
		<rect x="427" y="0" class="st507" width="60" height="111.2"/>
		<rect x="427.6" y="0" class="st508" width="60" height="111.2"/>
		<rect x="428.2" y="0" class="st509" width="60" height="111.2"/>
		<rect x="428.8" y="0" class="st3" width="60" height="111.2"/>
		<rect x="429.3" y="0" class="st510" width="60" height="111.2"/>
		<rect x="429.8" y="0" class="st511" width="60" height="111.2"/>
		<rect x="430.3" y="0" class="st512" width="60" height="111.2"/>
		<rect x="430.9" y="0" class="st513" width="60" height="111.2"/>
		<rect x="431.4" y="0" class="st514" width="60" height="111.2"/>
		<rect x="431.9" y="0" class="st515" width="60" height="111.2"/>
		<rect x="432.4" y="0" class="st516" width="60" height="111.2"/>
		<rect x="432.9" y="0" class="st517" width="60" height="111.2"/>
		<rect x="433.5" y="0" class="st518" width="60" height="111.2"/>
		<rect x="434" y="0" class="st519" width="60" height="111.2"/>
		<rect x="434.5" y="0" class="st520" width="60" height="111.2"/>
		<rect x="435" y="0" class="st521" width="60" height="111.2"/>
		<rect x="435.5" y="0" class="st522" width="60" height="111.2"/>
		<rect x="436.1" y="0" class="st523" width="60" height="111.2"/>
		<rect x="436.6" y="0" class="st524" width="60" height="111.2"/>
		<rect x="437.1" y="0" class="st525" width="60" height="111.2"/>
		<rect x="437.6" y="0" class="st526" width="60" height="111.2"/>
		<rect x="438.1" y="0" class="st527" width="60" height="111.2"/>
		<rect x="438.7" y="0" class="st528" width="60" height="111.2"/>
		<rect x="439.2" y="0" class="st529" width="60" height="111.2"/>
		<rect x="439.7" y="0" class="st530" width="60" height="111.2"/>
		<rect x="440.2" y="0" class="st531" width="60" height="111.2"/>
		<rect x="440.7" y="0" class="st532" width="60" height="111.2"/>
		<rect x="441.3" y="0" class="st533" width="60" height="111.2"/>
		<rect x="441.8" y="0" class="st534" width="60" height="111.2"/>
		<rect x="442.3" y="0" class="st535" width="60" height="111.2"/>
		<rect x="442.8" y="0" class="st536" width="60" height="111.2"/>
		<rect x="443.3" y="0" class="st537" width="60" height="111.2"/>
		<rect x="443.9" y="0" class="st538" width="60" height="111.2"/>
		<rect x="444.4" y="0" class="st539" width="60" height="111.2"/>
		<rect x="444.9" y="0" class="st540" width="60" height="111.2"/>
		<rect x="445.4" y="0" class="st541" width="60" height="111.2"/>
		<rect x="445.9" y="0" class="st542" width="60" height="111.2"/>
		<rect x="446.5" y="0" class="st543" width="60" height="111.2"/>
		<rect x="447" y="0" class="st544" width="60" height="111.2"/>
		<rect x="447.5" y="0" class="st545" width="60" height="111.2"/>
		<rect x="448" y="0" class="st546" width="60" height="111.2"/>
		<rect x="448.5" y="0" class="st547" width="60" height="111.2"/>
		<rect x="449.1" y="0" class="st548" width="60" height="111.2"/>
		<rect x="449.6" y="0" class="st549" width="60" height="111.2"/>
		<rect x="450.1" y="0" class="st550" width="60" height="111.2"/>
		<rect x="450.6" y="0" class="st551" width="60" height="111.2"/>
		<rect x="451.1" y="0" class="st552" width="60" height="111.2"/>
		<rect x="451.7" y="0" class="st553" width="60" height="111.2"/>
		<rect x="452.2" y="0" class="st554" width="60" height="111.2"/>
		<rect x="452.7" y="0" class="st555" width="60" height="111.2"/>
		<rect x="453.2" y="0" class="st556" width="60" height="111.2"/>
		<rect x="453.7" y="0" class="st557" width="60" height="111.2"/>
		<rect x="454.3" y="0" class="st558" width="60" height="111.2"/>
		<rect x="454.8" y="0" class="st559" width="60" height="111.2"/>
		<rect x="455.3" y="0" class="st560" width="60" height="111.2"/>
		<rect x="455.8" y="0" class="st561" width="60" height="111.2"/>
		<rect x="456.3" y="0" class="st562" width="60" height="111.2"/>
		<rect x="456.9" y="0" class="st563" width="60" height="111.2"/>
		<rect x="457.4" y="0" class="st564" width="60" height="111.2"/>
		<rect x="457.9" y="0" class="st565" width="60" height="111.2"/>
		<rect x="458.4" y="0" class="st566" width="60" height="111.2"/>
		<rect x="458.9" y="0" class="st567" width="60" height="111.2"/>
		<rect x="459.5" y="0" class="st568" width="60" height="111.2"/>
		<rect x="460" y="0" class="st569" width="60" height="111.2"/>
		<rect x="460.5" y="0" class="st570" width="60" height="111.2"/>
		<rect x="461" y="0" class="st571" width="60" height="111.2"/>
		<rect x="461.5" y="0" class="st572" width="60" height="111.2"/>
		<rect x="462.1" y="0" class="st573" width="60" height="111.2"/>
		<rect x="462.6" y="0" class="st574" width="60" height="111.2"/>
		<rect x="463.1" y="0" class="st575" width="60" height="111.2"/>
		<rect x="463.6" y="0" class="st576" width="60" height="111.2"/>
		<rect x="464.1" y="0" class="st577" width="60" height="111.2"/>
		<rect x="464.7" y="0" class="st578" width="60" height="111.2"/>
		<rect x="465.2" y="0" class="st579" width="60" height="111.2"/>
		<rect x="465.7" y="0" class="st580" width="60" height="111.2"/>
		<rect x="466.2" y="0" class="st581" width="60" height="111.2"/>
		<rect x="466.7" y="0" class="st582" width="60" height="111.2"/>
		<rect x="467.3" y="0" class="st583" width="60" height="111.2"/>
		<rect x="467.8" y="0" class="st584" width="60" height="111.2"/>
		<rect x="468.3" y="0" class="st585" width="60" height="111.2"/>
		<rect x="468.8" y="0" class="st586" width="60" height="111.2"/>
		<rect x="469.3" y="0" class="st587" width="60" height="111.2"/>
		<rect x="469.9" y="0" class="st588" width="60" height="111.2"/>
		<rect x="470.4" y="0" class="st589" width="60" height="111.2"/>
		<rect x="470.9" y="0" class="st590" width="60" height="111.2"/>
		<rect x="471.4" y="0" class="st591" width="60" height="111.2"/>
		<rect x="471.9" y="0" class="st592" width="60" height="111.2"/>
		<rect x="472.5" y="0" class="st593" width="60" height="111.2"/>
		<rect x="473" y="0" class="st594" width="60" height="111.2"/>
		<rect x="473.5" y="0" class="st595" width="60" height="111.2"/>
		<rect x="474" y="0" class="st596" width="60" height="111.2"/>
		<rect x="474.5" y="0" class="st597" width="60" height="111.2"/>
		<rect x="475.1" y="0" class="st598" width="60" height="111.2"/>
		<rect x="475.6" y="0" class="st599" width="60" height="111.2"/>
		<rect x="476.1" y="0" class="st600" width="60" height="111.2"/>
		<rect x="476.6" y="0" class="st601" width="60" height="111.2"/>
		<rect x="477.1" y="0" class="st602" width="60" height="111.2"/>
		<rect x="477.7" y="0" class="st603" width="60" height="111.2"/>
		<rect x="478.2" y="0" class="st604" width="60" height="111.2"/>
		<rect x="478.7" y="0" class="st605" width="60" height="111.2"/>
		<rect x="479.2" y="0" class="st606" width="60" height="111.2"/>
		<rect x="479.7" y="0" class="st607" width="60" height="111.2"/>
		<rect x="480.3" y="0" class="st608" width="60" height="111.2"/>
		<rect x="480.8" y="0" class="st609" width="60" height="111.2"/>
		<rect x="481.3" y="0" class="st610" width="60" height="111.2"/>
		<rect x="481.8" y="0" class="st611" width="60" height="111.2"/>
		<rect x="482.3" y="0" class="st612" width="60" height="111.2"/>
		<rect x="482.9" y="0" class="st613" width="60" height="111.2"/>
		<rect x="483.4" y="0" class="st614" width="60" height="111.2"/>
		<rect x="483.9" y="0" class="st615" width="60" height="111.2"/>
		<rect x="484.4" y="0" class="st616" width="60" height="111.2"/>
		<rect x="484.9" y="0" class="st617" width="60" height="111.2"/>
		<rect x="485.5" y="0" class="st618" width="60" height="111.2"/>
		<rect x="486" y="0" class="st619" width="60" height="111.2"/>
		<rect x="486.5" y="0" class="st620" width="60" height="111.2"/>
		<rect x="487" y="0" class="st621" width="60" height="111.2"/>
		<rect x="487.5" y="0" class="st622" width="60" height="111.2"/>
		<rect x="488.1" y="0" class="st623" width="60" height="111.2"/>
		<rect x="488.6" y="0" class="st624" width="60" height="111.2"/>
		<rect x="489.1" y="0" class="st625" width="60" height="111.2"/>
		<rect x="489.6" y="0" class="st626" width="60" height="111.2"/>
		<rect x="490.1" y="0" class="st627" width="60" height="111.2"/>
		<rect x="490.7" y="0" class="st628" width="60" height="111.2"/>
		<rect x="491.2" y="0" class="st629" width="60" height="111.2"/>
		<rect x="491.7" y="0" class="st630" width="60" height="111.2"/>
		<rect x="492.2" y="0" class="st631" width="60" height="111.2"/>
		<rect x="492.7" y="0" class="st632" width="60" height="111.2"/>
		<rect x="493.3" y="0" class="st633" width="60" height="111.2"/>
		<rect x="493.8" y="0" class="st634" width="60" height="111.2"/>
		<rect x="494.3" y="0" class="st635" width="60" height="111.2"/>
		<rect x="494.8" y="0" class="st636" width="60" height="111.2"/>
		<rect x="495.3" y="0" class="st637" width="60" height="111.2"/>
		<rect x="495.9" y="0" class="st638" width="60" height="111.2"/>
		<rect x="496.4" y="0" class="st639" width="60" height="111.2"/>
		<rect x="496.9" y="0" class="st640" width="60" height="111.2"/>
		<rect x="497.4" y="0" class="st641" width="60" height="111.2"/>
		<rect x="497.9" y="0" class="st642" width="60" height="111.2"/>
		<rect x="498.5" y="0" class="st643" width="60" height="111.2"/>
		<rect x="499" y="0" class="st644" width="60" height="111.2"/>
		<rect x="499.5" y="0" class="st645" width="60" height="111.2"/>
		<rect x="500" y="0" class="st4" width="60" height="111.2"/>
	</g>
</g>
</svg>
