<?xml version="1.0" encoding="utf-8"?>
<!-- Generator: Adobe Illustrator 24.3.0, SVG Export Plug-In . SVG Version: 6.00 Build 0)  -->
<svg version="1.1" id="Layer_1" xmlns="http://www.w3.org/2000/svg" xmlns:xlink="http://www.w3.org/1999/xlink" x="0px" y="0px"
	 viewBox="0 0 283.5 283.5" style="enable-background:new 0 0 283.5 283.5;" xml:space="preserve">
<style type="text/css">
	.st0{fill:#7A3294;}
	.st1{fill:#FFFFFF;}
</style>
<circle class="st0" cx="141.7" cy="141.7" r="141.7"/>
<g>
	<path class="st1" d="M236.8,94.8c-6.2,2.8-13,4.6-20,5.6c7.2-4.4,12.8-11.2,15.4-19.4c-6.8,4-14.2,7-22.2,8.4
		c-6.4-6.8-15.4-11-25.4-11c-19.2,0-34.8,15.6-34.8,34.8c0,2.8,0.4,5.4,1,8c-29-1.4-54.8-15.4-72-36.4c-3,5.2-4.8,11.2-4.8,17.6
		c0,12,6.2,22.8,15.6,29c-5.8-0.2-11-1.8-15.8-4.4c0,0.2,0,0.2,0,0.4c0,16.8,12,31,28,34.2c-3,0.8-6,1.2-9.2,1.2
		c-2.2,0-4.4-0.2-6.6-0.6c4.4,13.8,17.4,24,32.6,24.2c-12,9.4-27,15-43.4,15c-2.8,0-5.6-0.2-8.4-0.4c15.4,10,33.8,15.6,53.6,15.6
		c64.2,0,99.2-53.2,99.2-99.2c0-1.6,0-3-0.2-4.6C226.2,108,232.2,101.8,236.8,94.8"/>
</g>
</svg>
